# xmcd
#
# Track frame offsets:
#	150
#	13625
#	27969
#	41477
#	55052
#	68325
#	81504
#	94770
#	110907
#	123085
#	135220
#	147472
#
# Disc length: 2118 seconds
#
# Revision: 1
# Processed by: cddbd v1.4PL0 Copyright (c) Steve Scherf et al.
# Submitted via: audiograbber 1.80
#
DISCID=9a08440c
DTITLE=Various Artist - Country Pride - Back To The Country
DYEAR=1900
DGENRE=
TTITLE0=Mel McDaniel - Baby's Got Her Blue Jeans On
TTITLE1=T. Grahm Brown - Darlene
TTITLE2=Deborah Allen - I've Neen Wrong Before
TTITLE3=Johnny Paycheck - I'm The Only Hell My Moma Ever Raised
TTITLE4=Lacy J. Dalton - Life's Railway To Heaven
TTITLE5=Margo Smith - Don't Break The Heart That Loves You
TTITLE6=Donna Fargo - Somebody Special
TTITLE7=Lynn Anderson - I Was Country When Country Wasn't Cool
TTITLE8=Willie Nelson - Is There Something On Your Mind
TTITLE9=Red Steagall - Truck Drivin' Man
TTITLE10=Barbara Mandrell - Mama Don't Allow No Country Music Here
TTITLE11=Kenny Rogers and the First Edition  - Me and Bobby McGee
EXTD=
EXTT0=
EXTT1=
EXTT2=
EXTT3=
EXTT4=
EXTT5=
EXTT6=
EXTT7=
EXTT8=
EXTT9=
EXTT10=
EXTT11=
PLAYORDER=
